<?xml version="1.0" encoding="UTF-8" standalone="no"?>
<!-- Created with Inkscape (http://www.inkscape.org/) -->
<svg
   xmlns:dc="http://purl.org/dc/elements/1.1/"
   xmlns:cc="http://creativecommons.org/ns#"
   xmlns:rdf="http://www.w3.org/1999/02/22-rdf-syntax-ns#"
   xmlns:svg="http://www.w3.org/2000/svg"
   xmlns="http://www.w3.org/2000/svg"
   xmlns:sodipodi="http://sodipodi.sourceforge.net/DTD/sodipodi-0.dtd"
   xmlns:inkscape="http://www.inkscape.org/namespaces/inkscape"
   width="744.09448819"
   height="1052.3622047"
   id="svg2"
   sodipodi:version="0.32"
   inkscape:version="0.46"
   sodipodi:docname="racehorse.svg"
   inkscape:output_extension="org.inkscape.output.svg.inkscape">
  <defs
     id="defs4">
    <inkscape:perspective
       sodipodi:type="inkscape:persp3d"
       inkscape:vp_x="0 : 526.18109 : 1"
       inkscape:vp_y="0 : 1000 : 0"
       inkscape:vp_z="744.09448 : 526.18109 : 1"
       inkscape:persp3d-origin="372.04724 : 350.78739 : 1"
       id="perspective10" />
    <inkscape:perspective
       id="perspective2390"
       inkscape:persp3d-origin="372.04724 : 350.78739 : 1"
       inkscape:vp_z="744.09448 : 526.18109 : 1"
       inkscape:vp_y="0 : 1000 : 0"
       inkscape:vp_x="0 : 526.18109 : 1"
       sodipodi:type="inkscape:persp3d" />
    <inkscape:perspective
       id="perspective2405"
       inkscape:persp3d-origin="372.04724 : 350.78739 : 1"
       inkscape:vp_z="744.09448 : 526.18109 : 1"
       inkscape:vp_y="0 : 1000 : 0"
       inkscape:vp_x="0 : 526.18109 : 1"
       sodipodi:type="inkscape:persp3d" />
  </defs>
  <sodipodi:namedview
     id="base"
     pagecolor="#ffffff"
     bordercolor="#666666"
     borderopacity="1.0"
     gridtolerance="10000"
     guidetolerance="10"
     objecttolerance="10"
     inkscape:pageopacity="0.0"
     inkscape:pageshadow="2"
     inkscape:zoom="0.98994949"
     inkscape:cx="527.10423"
     inkscape:cy="790.74079"
     inkscape:document-units="px"
     inkscape:current-layer="layer1"
     showgrid="false"
     showguides="true"
     inkscape:guide-bbox="true"
     inkscape:window-width="1440"
     inkscape:window-height="844"
     inkscape:window-x="-4"
     inkscape:window-y="-4" />
  <metadata
     id="metadata7">
    <rdf:RDF>
      <cc:Work
         rdf:about="">
        <dc:format>image/svg+xml</dc:format>
        <dc:type
           rdf:resource="http://purl.org/dc/dcmitype/StillImage" />
      </cc:Work>
    </rdf:RDF>
  </metadata>
  <g
     inkscape:label="Layer 1"
     inkscape:groupmode="layer"
     id="layer1">
    <path
       id="path2437"
       style="fill:#000000"
       d="M 365.72445,475.28356 C 371.91321,469.15539 376.97676,463.47367 376.97676,462.65753 C 376.97676,461.84138 385.94302,453.09819 396.90179,443.22822 C 419.32827,423.02991 418.52102,423.30995 440.96007,427.94486 C 450.44892,429.90483 455.02123,430.14162 458.2972,428.8427 C 464.37977,426.43093 496.08532,420.18758 502.25032,420.18758 C 505.00135,420.18758 509.81921,418.45767 512.95667,416.34335 C 519.71024,411.79211 528.01218,400.35923 528.04798,395.5606 C 528.06193,393.69235 525.42354,385.73036 522.18491,377.8673 C 516.72354,364.60764 508.71865,338.69202 509.82069,337.83845 C 510.08548,337.63335 516.79858,334.24655 524.73866,330.31221 C 546.3262,319.61552 548.05107,317.44685 552.54288,295.35426 C 554.46998,285.87594 557.4214,279.50513 567.09914,263.93362 C 578.68352,245.29432 584.40338,234.34525 597.12906,206.44971 L 602.82048,193.97375 L 611.75157,195.20207 C 617.75719,196.02806 621.45696,197.53588 623.04648,199.80525 C 624.95612,202.53164 626.78417,203.02523 632.56056,202.37415 C 640.45209,201.48465 643.62755,204.21821 643.62755,211.90104 C 643.62755,216.93189 646.404,219.35522 652.98899,220.07181 C 657.74383,220.58925 658.09732,220.22222 658.59118,214.25505 C 659.22673,206.57599 661.3394,206.05473 663.754,212.98124 C 666.34215,220.4056 672.54579,219.84449 681.05892,211.41602 C 684.75896,207.75276 687.78628,203.95313 687.78628,202.97238 C 687.78628,201.99163 685.83091,196.77278 683.44103,191.3749 L 679.09578,181.56061 L 682.59182,179.23044 C 689.95032,174.32586 684.98028,160.33045 675.88007,160.33045 C 671.21102,160.33045 670.29709,158.96634 657.95816,133.58045 C 650.80708,118.86795 644.24103,105.44875 643.36693,103.76001 C 642.2553,101.61235 642.86812,97.618223 645.40602,90.470043 C 647.40161,84.849293 648.57272,79.788853 648.00848,79.224623 C 647.44424,78.660383 644.69914,79.886963 641.90825,81.950363 C 637.85607,84.946263 636.8339,85.178553 636.8339,83.103523 C 636.8339,78.878793 634.21585,80.080553 627.69468,87.298713 C 622.79787,91.720948 615.17864,97.051002 608.28525,97.570763 C 605.77153,97.615633 601.32168,98.953133 598.3967,100.54298 C 595.47172,102.13284 588.86537,105.55252 583.71593,108.14229 C 578.39065,110.82048 567.86715,119.0848 559.31185,127.30731 C 553.70406,132.55988 517.82688,169.25415 508.26023,155.12541 C 507.12294,152.75256 505.01547,141.83264 503.57695,130.85893 C 500.63535,108.41921 501.37298,105.08491 511.21967,96.311463 C 513.98448,93.848013 516.2466,90.430223 516.2466,88.716383 C 518.8245,81.829489 520.22718,78.616299 528.59042,79.975493 C 532.61408,80.480947 536.63774,81.486581 540.6614,78.328962 C 544.10485,70.006657 543.84732,68.205732 547.92394,60.509029 C 547.74415,58.319392 543.03303,55.336023 542.84211,48.445993 C 542.52753,37.092883 542.85678,35.681613 546.35492,33.389553 C 552.15085,29.591903 551.03663,27.802423 542.9966,27.996013 C 539.02656,28.091613 531.81931,27.194563 526.9805,26.002573 C 519.68282,24.204873 516.96224,24.238093 511.02539,26.197433 C 499.48832,30.005003 489.88351,46.668953 495.81002,52.595463 C 496.71354,53.498993 497.00655,55.944713 496.46114,58.030383 C 495.7518,60.742883 494.19612,61.822763 490.99692,61.823383 C 488.53703,61.823853 482.3208,63.425483 477.1831,65.382563 C 472.04541,67.339633 464.40255,69.593343 460.19898,70.390793 C 455.99541,71.188243 446.97397,72.967606 442.7704,73.908436 L 402.66773,86.876383 C 388.91121,93.189856 390.107,98.728553 389.29597,107.18187 C 390.39231,117.31801 393.97782,122.47581 398.42246,125.91534 C 403.90867,131.35483 417.95096,142.19915 429.62755,150.01382 C 441.30414,157.82849 451.52783,164.81925 452.34688,165.54887 C 453.17074,166.28279 452.18573,169.5457 450.14208,172.85242 C 447.09039,177.79015 445.1337,179.02649 438.8886,179.963 C 428.88893,181.46254 412.78843,178.27668 395.84891,171.44658 C 383.49226,166.46432 382.07199,166.20748 382.07199,168.95526 C 382.07199,170.64024 381.45087,172.40275 380.69171,172.87194 C 379.93254,173.34112 370.18789,171.88997 359.03695,169.64714 C 313.00069,160.38777 299.68328,161.07325 263.4396,174.56789 C 252.55607,178.62015 232.18707,185.56421 218.17517,189.99914 C 188.31556,199.45004 163.42261,209.14388 148.01012,217.32289 C 120.69896,241.1228 108.40629,244.79599 73.490231,232.35791 C 54.313401,225.30954 37.373011,220.82628 35.818061,222.38799 C 35.228761,222.97987 36.657311,225.04524 38.992631,226.97773 C 43.124001,230.39644 43.135471,230.46559 39.417231,229.53815 C 34.833851,228.39491 34.529071,229.57937 38.568031,232.8383 C 41.295251,235.03882 41.213251,235.146 37.573051,234.13862 C 34.045051,233.16231 33.803401,233.40989 35.390281,236.37499 C 36.371711,238.20882 36.701061,240.18287 36.122161,240.76175 C 35.543271,241.34066 39.200521,243.74274 44.249391,246.09975 L 53.429141,250.3852 L 45.786281,249.51196 L 38.143421,248.63872 L 47.484691,252.45792 L 56.825961,256.27713 L 44.087871,258.18706 L 31.349771,260.09698 L 43.306431,260.31689 C 57.572551,260.57927 71.472791,263.95823 83.604501,270.11279 C 91.253721,273.99334 92.019151,274.80727 89.095801,275.95201 C 82.684921,278.46246 68.105241,277.5658 59.373581,274.1241 C 47.599961,269.48337 45.099481,269.89011 54.027101,274.99377 C 58.092491,277.31783 63.296521,279.21934 65.591621,279.21934 C 71.456881,284.3917 86.387131,280.15143 98.437071,279.90911 C 120.65253,279.67432 124.72439,279.14024 140.0197,274.45495 C 175.54936,265.6481 204.04832,282.81132 218.84833,237.95411 C 221.78971,244.77587 229.72584,252.63679 234.49528,258.82451 C 239.82742,266.18529 258.79531,282.53994 268.65549,288.27838 C 272.13236,290.30185 275.24229,293.10386 275.56645,294.50505 C 277.25586,301.80749 266.38047,315.20038 249.19105,326.98597 C 229.8773,340.22808 232.99339,346.62037 274.43806,378.77701 C 286.21149,387.91195 299.75114,400.21806 305.22053,406.75504 C 310.59083,413.17355 315.94005,418.43949 317.10771,418.45712 C 319.64762,418.49547 319.92184,421.2584 317.53231,422.7352 C 315.30848,424.10961 315.34774,434.78824 317.59206,438.98178 C 319.99873,443.47868 323.30511,443.10191 326.02437,438.02092 C 327.2742,435.6856 328.88681,433.77489 329.60796,433.77489 C 331.98821,433.77489 333.14037,437.2837 331.44489,439.36912 C 328.46438,443.03511 333.08237,452.63693 339.45887,456.03196 C 342.64426,457.72796 345.89247,458.71883 346.67712,458.2339 C 350.57807,455.82297 347.77561,442.68878 339.61168,425.12061 C 334.94104,415.06974 331.11961,404.44785 331.11961,401.51639 C 331.11961,393.64518 329.4525,391.47755 311.11922,375.51108 C 298.37405,364.41131 293.91466,359.4079 292.41664,354.52692 C 290.13686,347.09874 290.89386,345.52428 303.61941,331.22665 C 308.00206,326.30256 313.20858,320.42045 315.18944,318.15529 C 317.17029,315.89012 322.13815,310.95305 326.22912,307.18404 C 330.32008,303.41502 337.72588,295.19895 342.68645,288.9261 C 347.64704,282.65325 352.54105,277.52092 353.56203,277.52092 C 354.58303,277.52092 359.42852,281.31355 364.32981,285.94897 C 374.33233,295.40894 394.20588,305.43194 418.58787,313.31339 C 426.99501,316.03099 435.2007,319.02513 436.82275,319.96706 C 438.44481,320.90898 440.95414,321.67965 442.39905,321.67965 C 446.03286,321.67965 461.89739,329.88107 461.89739,331.75961 C 461.89739,332.60148 456.47016,341.4503 449.83689,351.42366 C 443.20362,361.39701 435.10211,374.96827 431.83351,381.58199 C 422.6109,400.24321 417.11264,406.25693 391.92156,425.23578 C 375.38881,437.69149 368.45748,443.92654 368.39233,446.40141 C 368.34153,448.33103 366.99262,453.32107 365.39475,457.4904 C 362.8732,464.06985 361.82651,465.07921 357.46913,465.13326 C 353.62446,465.18093 352.08324,466.22906 350.88812,469.60869 C 349.20215,474.37634 350.76069,486.42568 353.06331,486.42568 C 353.83818,486.42568 359.53569,481.41173 365.72445,475.28356 z M 436.4212,412.24207 C 436.4212,411.60855 441.98477,405.30319 448.78469,398.23017 C 455.58461,391.15714 465.48524,380.43087 470.7861,374.39402 C 476.08695,368.35716 480.75298,363.77145 481.15506,364.20354 C 481.55713,364.63563 485.39192,372.00029 489.6768,380.56941 C 493.96167,389.13855 498.25351,396.63544 499.21418,397.22917 C 506.78543,401.90847 488.20023,409.47807 464.40246,411.40773 C 438.74006,413.48857 436.4212,413.55771 436.4212,412.24207 z M 227.36504,203.88572 C 231.88527,199.36551 233.51287,201.20217 230.39384,207.30357 C 229.03628,209.95922 227.26028,214.80704 226.44719,218.07648 L 224.96882,224.02092 L 224.44,215.68026 C 224.02262,209.09716 224.63899,206.61179 227.36504,203.88572 z M 624.96296,198.56636 C 622.69633,195.83524 623.74367,190.90188 626.59012,190.90188 C 627.55356,190.90188 628.34183,192.07229 628.34183,193.50279 C 628.34183,194.93332 629.48826,196.54365 630.88945,197.08133 C 632.29064,197.61903 633.43707,198.74146 633.43707,199.57565 C 633.43707,202.04316 627.23543,201.30454 624.96296,198.56636 z M 608.98629,181.40734 C 607.21102,176.78107 609.37907,175.91334 615.52349,178.79092 C 623.03082,182.30677 623.11957,184.10823 615.78545,184.10823 C 612.08445,184.10823 609.65191,183.14193 608.98629,181.40734 z M 480.09153,173.91775 C 478.4919,173.91775 477.1831,173.14443 477.1831,172.19926 C 477.1831,170.13209 490.60294,171.88119 493.74263,174.35757 C 496.79946,176.76862 496.35412,180.34487 492.89342,181.17704 C 491.21072,181.58167 488.41979,180.16197 486.46058,177.90474 C 484.55722,175.7119 481.69115,173.91775 480.09153,173.91775 z M 461.82775,131.35965 C 459.79399,128.50349 458.40445,125.89665 458.73989,125.56668 C 459.07532,125.23671 462.29932,124.41571 465.9043,123.74224 C 472.03223,122.59744 472.39141,122.75392 471.42282,126.14637 C 470.853,128.14211 469.95374,131.29997 469.42447,133.16383 C 468.08761,137.87156 466.13433,137.40767 461.82775,131.35965 z"
       sodipodi:nodetypes="csssssssssssscccsssssssscccsssssssccssccssccccssssssssssccccssssssssssccssssssscccccccccsssscccccsssssssssssssssssssssssssssssssssssccssssssccscccccssssccssccssssccssssc" />
  </g>
</svg>
